<mxfile host="app.diagrams.net" modified="2023-12-22T14:53:59.923Z" agent="Mozilla/5.0 (Windows NT 10.0; Win64; x64; rv:121.0) Gecko/20100101 Firefox/121.0" etag="Qp2SQAyzTfRoKzQSQnAi" version="22.1.11" type="device">
  <diagram name="Pagina-1" id="ETkQCdSDt0BnW28eBhg6">
    <mxGraphModel dx="842" dy="506" grid="1" gridSize="10" guides="1" tooltips="1" connect="1" arrows="1" fold="1" page="1" pageScale="1" pageWidth="827" pageHeight="1169" math="0" shadow="0">
      <root>
        <mxCell id="0" />
        <mxCell id="1" parent="0" />
        <mxCell id="w4sTkqO0PAefkdEIBdRm-1" value="Deployment Diagram" style="shape=umlFrame;whiteSpace=wrap;html=1;pointerEvents=0;recursiveResize=0;container=1;collapsible=0;width=160;" vertex="1" parent="1">
          <mxGeometry x="180" y="150" width="1270" height="310" as="geometry" />
        </mxCell>
        <mxCell id="w4sTkqO0PAefkdEIBdRm-2" value="" style="shape=cube;whiteSpace=wrap;html=1;boundedLbl=1;backgroundOutline=1;darkOpacity=0.05;darkOpacity2=0.1;size=6;fillColor=#dae8fc;strokeColor=#6c8ebf;" vertex="1" parent="w4sTkqO0PAefkdEIBdRm-1">
          <mxGeometry x="50" y="70" width="230" height="210" as="geometry" />
        </mxCell>
        <mxCell id="w4sTkqO0PAefkdEIBdRm-3" value="&lt;div&gt;&amp;lt;&amp;lt;Device&amp;gt;&amp;gt;&lt;/div&gt;&lt;div&gt;&lt;b&gt;PC&lt;/b&gt;&lt;br&gt;&lt;/div&gt;" style="text;html=1;strokeColor=none;fillColor=none;align=center;verticalAlign=middle;whiteSpace=wrap;rounded=0;" vertex="1" parent="w4sTkqO0PAefkdEIBdRm-1">
          <mxGeometry x="135" y="90" width="60" height="30" as="geometry" />
        </mxCell>
        <mxCell id="w4sTkqO0PAefkdEIBdRm-4" value="" style="shape=cube;whiteSpace=wrap;html=1;boundedLbl=1;backgroundOutline=1;darkOpacity=0.05;darkOpacity2=0.1;size=6;fillColor=#f8cecc;strokeColor=#b85450;" vertex="1" parent="w4sTkqO0PAefkdEIBdRm-1">
          <mxGeometry x="65" y="140" width="205" height="130" as="geometry" />
        </mxCell>
        <mxCell id="w4sTkqO0PAefkdEIBdRm-5" value="&lt;div&gt;&amp;lt;&amp;lt;Environment&amp;gt;&amp;gt;&lt;/div&gt;&lt;div&gt;&lt;b&gt;Windows/Max/Linux&lt;/b&gt;&lt;br&gt;&lt;/div&gt;" style="text;html=1;strokeColor=none;fillColor=none;align=center;verticalAlign=middle;whiteSpace=wrap;rounded=0;" vertex="1" parent="w4sTkqO0PAefkdEIBdRm-1">
          <mxGeometry x="95" y="160" width="140" height="30" as="geometry" />
        </mxCell>
        <mxCell id="w4sTkqO0PAefkdEIBdRm-6" value="&lt;div&gt;&amp;lt;&amp;lt;Web Application&amp;gt;&amp;gt;&lt;/div&gt;&lt;div&gt;&lt;b&gt;CKB Platform&lt;/b&gt;&lt;br&gt;&lt;/div&gt;" style="shape=module;align=left;spacingLeft=20;align=center;verticalAlign=top;whiteSpace=wrap;html=1;fillColor=#ffe6cc;strokeColor=#d79b00;" vertex="1" parent="w4sTkqO0PAefkdEIBdRm-1">
          <mxGeometry x="80" y="200" width="180" height="60" as="geometry" />
        </mxCell>
        <mxCell id="w4sTkqO0PAefkdEIBdRm-23" style="edgeStyle=orthogonalEdgeStyle;rounded=0;orthogonalLoop=1;jettySize=auto;html=1;endArrow=none;endFill=0;" edge="1" parent="w4sTkqO0PAefkdEIBdRm-1" source="w4sTkqO0PAefkdEIBdRm-7" target="w4sTkqO0PAefkdEIBdRm-12">
          <mxGeometry relative="1" as="geometry" />
        </mxCell>
        <mxCell id="w4sTkqO0PAefkdEIBdRm-7" value="" style="shape=cube;whiteSpace=wrap;html=1;boundedLbl=1;backgroundOutline=1;darkOpacity=0.05;darkOpacity2=0.1;size=6;fillColor=#d5e8d4;strokeColor=#82b366;" vertex="1" parent="w4sTkqO0PAefkdEIBdRm-1">
          <mxGeometry x="380" y="70" width="230" height="210" as="geometry" />
        </mxCell>
        <mxCell id="w4sTkqO0PAefkdEIBdRm-8" value="&lt;div&gt;&amp;lt;&amp;lt;Device&amp;gt;&amp;gt;&lt;/div&gt;&lt;div&gt;&lt;b&gt;Web Server&lt;/b&gt;&lt;br&gt;&lt;/div&gt;" style="text;html=1;strokeColor=none;fillColor=none;align=center;verticalAlign=middle;whiteSpace=wrap;rounded=0;" vertex="1" parent="w4sTkqO0PAefkdEIBdRm-1">
          <mxGeometry x="447.5" y="90" width="95" height="30" as="geometry" />
        </mxCell>
        <mxCell id="w4sTkqO0PAefkdEIBdRm-9" value="" style="shape=cube;whiteSpace=wrap;html=1;boundedLbl=1;backgroundOutline=1;darkOpacity=0.05;darkOpacity2=0.1;size=6;fillColor=#f8cecc;strokeColor=#b85450;" vertex="1" parent="w4sTkqO0PAefkdEIBdRm-1">
          <mxGeometry x="395" y="140" width="205" height="130" as="geometry" />
        </mxCell>
        <mxCell id="w4sTkqO0PAefkdEIBdRm-10" value="&lt;div&gt;&amp;lt;&amp;lt;Environment&amp;gt;&amp;gt;&lt;/div&gt;&lt;div&gt;&lt;b&gt;Linux OS&lt;/b&gt;&lt;br&gt;&lt;/div&gt;" style="text;html=1;strokeColor=none;fillColor=none;align=center;verticalAlign=middle;whiteSpace=wrap;rounded=0;" vertex="1" parent="w4sTkqO0PAefkdEIBdRm-1">
          <mxGeometry x="425" y="160" width="140" height="30" as="geometry" />
        </mxCell>
        <mxCell id="w4sTkqO0PAefkdEIBdRm-11" value="&lt;div&gt;&amp;lt;&amp;lt;Artifact&amp;gt;&amp;gt;&lt;/div&gt;&lt;b&gt;Web Server Module&lt;br&gt;&lt;/b&gt;" style="shape=module;align=left;spacingLeft=20;align=center;verticalAlign=top;whiteSpace=wrap;html=1;fillColor=#ffe6cc;strokeColor=#d79b00;" vertex="1" parent="w4sTkqO0PAefkdEIBdRm-1">
          <mxGeometry x="410" y="200" width="180" height="60" as="geometry" />
        </mxCell>
        <mxCell id="w4sTkqO0PAefkdEIBdRm-24" style="edgeStyle=orthogonalEdgeStyle;rounded=0;orthogonalLoop=1;jettySize=auto;html=1;endArrow=none;endFill=0;" edge="1" parent="w4sTkqO0PAefkdEIBdRm-1" source="w4sTkqO0PAefkdEIBdRm-12" target="w4sTkqO0PAefkdEIBdRm-17">
          <mxGeometry relative="1" as="geometry" />
        </mxCell>
        <mxCell id="w4sTkqO0PAefkdEIBdRm-12" value="" style="shape=cube;whiteSpace=wrap;html=1;boundedLbl=1;backgroundOutline=1;darkOpacity=0.05;darkOpacity2=0.1;size=6;fillColor=#e1d5e7;strokeColor=#9673a6;" vertex="1" parent="w4sTkqO0PAefkdEIBdRm-1">
          <mxGeometry x="700" y="70" width="230" height="210" as="geometry" />
        </mxCell>
        <mxCell id="w4sTkqO0PAefkdEIBdRm-13" value="&lt;div&gt;&amp;lt;&amp;lt;Device&amp;gt;&amp;gt;&lt;/div&gt;&lt;div&gt;&lt;b&gt;Application Server&lt;/b&gt;&lt;br&gt;&lt;/div&gt;" style="text;html=1;strokeColor=none;fillColor=none;align=center;verticalAlign=middle;whiteSpace=wrap;rounded=0;" vertex="1" parent="w4sTkqO0PAefkdEIBdRm-1">
          <mxGeometry x="735" y="90" width="160" height="30" as="geometry" />
        </mxCell>
        <mxCell id="w4sTkqO0PAefkdEIBdRm-14" value="" style="shape=cube;whiteSpace=wrap;html=1;boundedLbl=1;backgroundOutline=1;darkOpacity=0.05;darkOpacity2=0.1;size=6;fillColor=#f8cecc;strokeColor=#b85450;" vertex="1" parent="w4sTkqO0PAefkdEIBdRm-1">
          <mxGeometry x="715" y="140" width="205" height="130" as="geometry" />
        </mxCell>
        <mxCell id="w4sTkqO0PAefkdEIBdRm-15" value="&lt;div&gt;&amp;lt;&amp;lt;Environment&amp;gt;&amp;gt;&lt;/div&gt;&lt;div&gt;&lt;b&gt;Linux OS&lt;/b&gt;&lt;br&gt;&lt;/div&gt;" style="text;html=1;strokeColor=none;fillColor=none;align=center;verticalAlign=middle;whiteSpace=wrap;rounded=0;" vertex="1" parent="w4sTkqO0PAefkdEIBdRm-1">
          <mxGeometry x="747.5" y="160" width="140" height="30" as="geometry" />
        </mxCell>
        <mxCell id="w4sTkqO0PAefkdEIBdRm-16" value="&lt;div&gt;&amp;lt;&amp;lt;Artifact&amp;gt;&amp;gt;&lt;/div&gt;&lt;b&gt;CKB Services&lt;br&gt;&lt;/b&gt;" style="shape=module;align=left;spacingLeft=20;align=center;verticalAlign=top;whiteSpace=wrap;html=1;fillColor=#ffe6cc;strokeColor=#d79b00;" vertex="1" parent="w4sTkqO0PAefkdEIBdRm-1">
          <mxGeometry x="730" y="200" width="180" height="60" as="geometry" />
        </mxCell>
        <mxCell id="w4sTkqO0PAefkdEIBdRm-17" value="" style="shape=cube;whiteSpace=wrap;html=1;boundedLbl=1;backgroundOutline=1;darkOpacity=0.05;darkOpacity2=0.1;size=6;fillColor=#fff2cc;strokeColor=#d6b656;" vertex="1" parent="w4sTkqO0PAefkdEIBdRm-1">
          <mxGeometry x="990" y="70" width="230" height="210" as="geometry" />
        </mxCell>
        <mxCell id="w4sTkqO0PAefkdEIBdRm-18" value="&lt;div&gt;&amp;lt;&amp;lt;Device&amp;gt;&amp;gt;&lt;/div&gt;&lt;b&gt;DataBase&lt;/b&gt;" style="text;html=1;strokeColor=none;fillColor=none;align=center;verticalAlign=middle;whiteSpace=wrap;rounded=0;" vertex="1" parent="w4sTkqO0PAefkdEIBdRm-1">
          <mxGeometry x="1025" y="90" width="160" height="30" as="geometry" />
        </mxCell>
        <mxCell id="w4sTkqO0PAefkdEIBdRm-19" value="" style="shape=cube;whiteSpace=wrap;html=1;boundedLbl=1;backgroundOutline=1;darkOpacity=0.05;darkOpacity2=0.1;size=6;fillColor=#f8cecc;strokeColor=#b85450;" vertex="1" parent="w4sTkqO0PAefkdEIBdRm-1">
          <mxGeometry x="1005" y="140" width="205" height="130" as="geometry" />
        </mxCell>
        <mxCell id="w4sTkqO0PAefkdEIBdRm-20" value="&lt;div&gt;&amp;lt;&amp;lt;Environment&amp;gt;&amp;gt;&lt;/div&gt;&lt;div&gt;&lt;b&gt;Linux OS&lt;/b&gt;&lt;br&gt;&lt;/div&gt;" style="text;html=1;strokeColor=none;fillColor=none;align=center;verticalAlign=middle;whiteSpace=wrap;rounded=0;" vertex="1" parent="w4sTkqO0PAefkdEIBdRm-1">
          <mxGeometry x="1037.5" y="160" width="140" height="30" as="geometry" />
        </mxCell>
        <mxCell id="w4sTkqO0PAefkdEIBdRm-21" value="&lt;div&gt;&amp;lt;&amp;lt;Artifact&amp;gt;&amp;gt;&lt;/div&gt;&lt;b&gt;PostgreSQL Services&lt;br&gt;&lt;/b&gt;" style="shape=module;align=left;spacingLeft=20;align=center;verticalAlign=top;whiteSpace=wrap;html=1;fillColor=#ffe6cc;strokeColor=#d79b00;" vertex="1" parent="w4sTkqO0PAefkdEIBdRm-1">
          <mxGeometry x="1020" y="200" width="180" height="60" as="geometry" />
        </mxCell>
        <mxCell id="w4sTkqO0PAefkdEIBdRm-22" style="edgeStyle=orthogonalEdgeStyle;rounded=0;orthogonalLoop=1;jettySize=auto;html=1;endArrow=none;endFill=0;jumpStyle=arc;" edge="1" parent="w4sTkqO0PAefkdEIBdRm-1" source="w4sTkqO0PAefkdEIBdRm-2" target="w4sTkqO0PAefkdEIBdRm-7">
          <mxGeometry relative="1" as="geometry">
            <Array as="points" />
          </mxGeometry>
        </mxCell>
      </root>
    </mxGraphModel>
  </diagram>
</mxfile>
